<mxfile host="Electron" modified="2024-04-24T21:04:37.312Z" agent="Mozilla/5.0 (Windows NT 10.0; Win64; x64) AppleWebKit/537.36 (KHTML, like Gecko) draw.io/23.1.5 Chrome/120.0.6099.109 Electron/28.1.0 Safari/537.36" etag="6zbEezJ73gSHKl0Vo3LT" version="23.1.5" type="device">
  <diagram name="Page-1" id="X2Jz9A3_ndakfiXFugpA">
    <mxGraphModel dx="1075" dy="532" grid="1" gridSize="10" guides="1" tooltips="1" connect="1" arrows="1" fold="1" page="1" pageScale="1" pageWidth="850" pageHeight="1100" math="0" shadow="0">
      <root>
        <mxCell id="0" />
        <mxCell id="1" parent="0" />
        <mxCell id="GvZyWoSlmWfVg5BlU15E-39" style="edgeStyle=orthogonalEdgeStyle;rounded=0;orthogonalLoop=1;jettySize=auto;html=1;entryX=0.5;entryY=0;entryDx=0;entryDy=0;" edge="1" parent="1" source="GvZyWoSlmWfVg5BlU15E-26" target="GvZyWoSlmWfVg5BlU15E-29">
          <mxGeometry relative="1" as="geometry" />
        </mxCell>
        <mxCell id="GvZyWoSlmWfVg5BlU15E-26" value="" style="shape=process;whiteSpace=wrap;html=1;backgroundOutline=1;" vertex="1" parent="1">
          <mxGeometry x="260" y="290" width="340" height="170" as="geometry" />
        </mxCell>
        <mxCell id="GvZyWoSlmWfVg5BlU15E-7" style="edgeStyle=orthogonalEdgeStyle;rounded=0;orthogonalLoop=1;jettySize=auto;html=1;" edge="1" parent="1" source="GvZyWoSlmWfVg5BlU15E-1" target="GvZyWoSlmWfVg5BlU15E-2">
          <mxGeometry relative="1" as="geometry" />
        </mxCell>
        <mxCell id="GvZyWoSlmWfVg5BlU15E-1" value="Start" style="ellipse;whiteSpace=wrap;html=1;" vertex="1" parent="1">
          <mxGeometry x="65" y="160" width="120" height="30" as="geometry" />
        </mxCell>
        <mxCell id="GvZyWoSlmWfVg5BlU15E-9" style="edgeStyle=orthogonalEdgeStyle;rounded=0;orthogonalLoop=1;jettySize=auto;html=1;entryX=0.5;entryY=0;entryDx=0;entryDy=0;" edge="1" parent="1" source="GvZyWoSlmWfVg5BlU15E-2" target="GvZyWoSlmWfVg5BlU15E-4">
          <mxGeometry relative="1" as="geometry" />
        </mxCell>
        <mxCell id="GvZyWoSlmWfVg5BlU15E-2" value="Data Collection" style="rounded=0;whiteSpace=wrap;html=1;" vertex="1" parent="1">
          <mxGeometry x="50" y="220" width="150" height="30" as="geometry" />
        </mxCell>
        <mxCell id="GvZyWoSlmWfVg5BlU15E-12" style="edgeStyle=orthogonalEdgeStyle;rounded=0;orthogonalLoop=1;jettySize=auto;html=1;entryX=0.5;entryY=0;entryDx=0;entryDy=0;" edge="1" parent="1" source="GvZyWoSlmWfVg5BlU15E-3" target="GvZyWoSlmWfVg5BlU15E-6">
          <mxGeometry relative="1" as="geometry" />
        </mxCell>
        <mxCell id="GvZyWoSlmWfVg5BlU15E-3" value="Time Series Analysis" style="rounded=0;whiteSpace=wrap;html=1;" vertex="1" parent="1">
          <mxGeometry x="50" y="400" width="150" height="30" as="geometry" />
        </mxCell>
        <mxCell id="GvZyWoSlmWfVg5BlU15E-10" style="edgeStyle=orthogonalEdgeStyle;rounded=0;orthogonalLoop=1;jettySize=auto;html=1;entryX=0.5;entryY=0;entryDx=0;entryDy=0;" edge="1" parent="1" source="GvZyWoSlmWfVg5BlU15E-4" target="GvZyWoSlmWfVg5BlU15E-5">
          <mxGeometry relative="1" as="geometry" />
        </mxCell>
        <mxCell id="GvZyWoSlmWfVg5BlU15E-4" value="Data PreProcessing" style="rounded=0;whiteSpace=wrap;html=1;" vertex="1" parent="1">
          <mxGeometry x="50" y="280" width="150" height="30" as="geometry" />
        </mxCell>
        <mxCell id="GvZyWoSlmWfVg5BlU15E-11" style="edgeStyle=orthogonalEdgeStyle;rounded=0;orthogonalLoop=1;jettySize=auto;html=1;entryX=0.5;entryY=0;entryDx=0;entryDy=0;" edge="1" parent="1" source="GvZyWoSlmWfVg5BlU15E-5" target="GvZyWoSlmWfVg5BlU15E-3">
          <mxGeometry relative="1" as="geometry" />
        </mxCell>
        <mxCell id="GvZyWoSlmWfVg5BlU15E-5" value="Exploratory Data Analysis" style="rounded=0;whiteSpace=wrap;html=1;" vertex="1" parent="1">
          <mxGeometry x="50" y="340" width="150" height="30" as="geometry" />
        </mxCell>
        <mxCell id="GvZyWoSlmWfVg5BlU15E-15" style="edgeStyle=elbowEdgeStyle;rounded=0;orthogonalLoop=1;jettySize=auto;html=1;entryX=0;entryY=0.5;entryDx=0;entryDy=0;" edge="1" parent="1" source="GvZyWoSlmWfVg5BlU15E-6" target="GvZyWoSlmWfVg5BlU15E-13">
          <mxGeometry relative="1" as="geometry">
            <mxPoint x="250" y="330" as="targetPoint" />
          </mxGeometry>
        </mxCell>
        <mxCell id="GvZyWoSlmWfVg5BlU15E-19" style="edgeStyle=elbowEdgeStyle;rounded=0;orthogonalLoop=1;jettySize=auto;html=1;" edge="1" parent="1" source="GvZyWoSlmWfVg5BlU15E-6" target="GvZyWoSlmWfVg5BlU15E-14">
          <mxGeometry relative="1" as="geometry">
            <Array as="points">
              <mxPoint x="220" y="550" />
            </Array>
          </mxGeometry>
        </mxCell>
        <mxCell id="GvZyWoSlmWfVg5BlU15E-6" value="Data Splitting" style="rounded=0;whiteSpace=wrap;html=1;" vertex="1" parent="1">
          <mxGeometry x="50" y="460" width="150" height="30" as="geometry" />
        </mxCell>
        <mxCell id="GvZyWoSlmWfVg5BlU15E-35" style="edgeStyle=orthogonalEdgeStyle;rounded=0;orthogonalLoop=1;jettySize=auto;html=1;" edge="1" parent="1" source="GvZyWoSlmWfVg5BlU15E-13" target="GvZyWoSlmWfVg5BlU15E-21">
          <mxGeometry relative="1" as="geometry" />
        </mxCell>
        <mxCell id="GvZyWoSlmWfVg5BlU15E-13" value="Training Data" style="shape=parallelogram;perimeter=parallelogramPerimeter;whiteSpace=wrap;html=1;fixedSize=1;" vertex="1" parent="1">
          <mxGeometry x="230" y="215" width="120" height="30" as="geometry" />
        </mxCell>
        <mxCell id="GvZyWoSlmWfVg5BlU15E-47" style="edgeStyle=orthogonalEdgeStyle;rounded=0;orthogonalLoop=1;jettySize=auto;html=1;entryX=0;entryY=0.5;entryDx=0;entryDy=0;" edge="1" parent="1" source="GvZyWoSlmWfVg5BlU15E-14" target="GvZyWoSlmWfVg5BlU15E-45">
          <mxGeometry relative="1" as="geometry" />
        </mxCell>
        <mxCell id="GvZyWoSlmWfVg5BlU15E-14" value="Test Data" style="shape=parallelogram;perimeter=parallelogramPerimeter;whiteSpace=wrap;html=1;fixedSize=1;" vertex="1" parent="1">
          <mxGeometry x="230" y="630" width="120" height="30" as="geometry" />
        </mxCell>
        <mxCell id="GvZyWoSlmWfVg5BlU15E-20" value="Experiment 1 - Basic modeling without Climate and ENSO (M1)" style="rounded=0;whiteSpace=wrap;html=1;" vertex="1" parent="1">
          <mxGeometry x="310" y="305" width="240" height="40" as="geometry" />
        </mxCell>
        <mxCell id="GvZyWoSlmWfVg5BlU15E-36" style="edgeStyle=elbowEdgeStyle;rounded=0;orthogonalLoop=1;jettySize=auto;html=1;entryX=0.5;entryY=0;entryDx=0;entryDy=0;elbow=vertical;" edge="1" parent="1" source="GvZyWoSlmWfVg5BlU15E-21" target="GvZyWoSlmWfVg5BlU15E-26">
          <mxGeometry relative="1" as="geometry" />
        </mxCell>
        <mxCell id="GvZyWoSlmWfVg5BlU15E-38" style="edgeStyle=elbowEdgeStyle;rounded=0;orthogonalLoop=1;jettySize=auto;html=1;elbow=vertical;" edge="1" parent="1" source="GvZyWoSlmWfVg5BlU15E-21" target="GvZyWoSlmWfVg5BlU15E-31">
          <mxGeometry relative="1" as="geometry" />
        </mxCell>
        <mxCell id="GvZyWoSlmWfVg5BlU15E-21" value="Setting Parameter on Hyperparameter tuning" style="rounded=0;whiteSpace=wrap;html=1;" vertex="1" parent="1">
          <mxGeometry x="540" y="210" width="150" height="40" as="geometry" />
        </mxCell>
        <mxCell id="GvZyWoSlmWfVg5BlU15E-22" value="Experiment 2 - model of hotspot prediction with Climate factor (M2)" style="rounded=0;whiteSpace=wrap;html=1;" vertex="1" parent="1">
          <mxGeometry x="310" y="355" width="240" height="40" as="geometry" />
        </mxCell>
        <mxCell id="GvZyWoSlmWfVg5BlU15E-23" value="Experiment 3 - model of hotspot prediction with ENSO factor (M3)" style="rounded=0;whiteSpace=wrap;html=1;" vertex="1" parent="1">
          <mxGeometry x="310" y="405" width="240" height="40" as="geometry" />
        </mxCell>
        <mxCell id="GvZyWoSlmWfVg5BlU15E-43" style="edgeStyle=orthogonalEdgeStyle;rounded=0;orthogonalLoop=1;jettySize=auto;html=1;entryX=0.5;entryY=0;entryDx=0;entryDy=0;" edge="1" parent="1" source="GvZyWoSlmWfVg5BlU15E-29" target="GvZyWoSlmWfVg5BlU15E-42">
          <mxGeometry relative="1" as="geometry" />
        </mxCell>
        <mxCell id="GvZyWoSlmWfVg5BlU15E-29" value="Implementation of SB-LSTM-RNN with GridSearch" style="rounded=0;whiteSpace=wrap;html=1;" vertex="1" parent="1">
          <mxGeometry x="330" y="490" width="200" height="40" as="geometry" />
        </mxCell>
        <mxCell id="GvZyWoSlmWfVg5BlU15E-44" style="edgeStyle=orthogonalEdgeStyle;rounded=0;orthogonalLoop=1;jettySize=auto;html=1;entryX=0.5;entryY=0;entryDx=0;entryDy=0;" edge="1" parent="1" source="GvZyWoSlmWfVg5BlU15E-30" target="GvZyWoSlmWfVg5BlU15E-42">
          <mxGeometry relative="1" as="geometry" />
        </mxCell>
        <mxCell id="GvZyWoSlmWfVg5BlU15E-30" value="Implementation of SB-GRU-RNN with GridSearch" style="rounded=0;whiteSpace=wrap;html=1;" vertex="1" parent="1">
          <mxGeometry x="710" y="490" width="200" height="40" as="geometry" />
        </mxCell>
        <mxCell id="GvZyWoSlmWfVg5BlU15E-40" style="edgeStyle=orthogonalEdgeStyle;rounded=0;orthogonalLoop=1;jettySize=auto;html=1;" edge="1" parent="1" source="GvZyWoSlmWfVg5BlU15E-31" target="GvZyWoSlmWfVg5BlU15E-30">
          <mxGeometry relative="1" as="geometry" />
        </mxCell>
        <mxCell id="GvZyWoSlmWfVg5BlU15E-31" value="" style="shape=process;whiteSpace=wrap;html=1;backgroundOutline=1;" vertex="1" parent="1">
          <mxGeometry x="640" y="290" width="340" height="170" as="geometry" />
        </mxCell>
        <mxCell id="GvZyWoSlmWfVg5BlU15E-32" value="Experiment 1 - Basic modeling without Climate and ENSO (M4)" style="rounded=0;whiteSpace=wrap;html=1;" vertex="1" parent="1">
          <mxGeometry x="690" y="305" width="240" height="40" as="geometry" />
        </mxCell>
        <mxCell id="GvZyWoSlmWfVg5BlU15E-33" value="Experiment 2 - model of hotspot prediction with Climate factor (M5)" style="rounded=0;whiteSpace=wrap;html=1;" vertex="1" parent="1">
          <mxGeometry x="690" y="355" width="240" height="40" as="geometry" />
        </mxCell>
        <mxCell id="GvZyWoSlmWfVg5BlU15E-34" value="Experiment 3 - model of hotspot prediction with ENSO factor (M6)" style="rounded=0;whiteSpace=wrap;html=1;" vertex="1" parent="1">
          <mxGeometry x="690" y="405" width="240" height="40" as="geometry" />
        </mxCell>
        <mxCell id="GvZyWoSlmWfVg5BlU15E-46" style="edgeStyle=orthogonalEdgeStyle;rounded=0;orthogonalLoop=1;jettySize=auto;html=1;entryX=0.5;entryY=0;entryDx=0;entryDy=0;" edge="1" parent="1" source="GvZyWoSlmWfVg5BlU15E-42" target="GvZyWoSlmWfVg5BlU15E-45">
          <mxGeometry relative="1" as="geometry" />
        </mxCell>
        <mxCell id="GvZyWoSlmWfVg5BlU15E-42" value="Best model prediction of hotspot prediction" style="rounded=0;whiteSpace=wrap;html=1;" vertex="1" parent="1">
          <mxGeometry x="485" y="570" width="260" height="30" as="geometry" />
        </mxCell>
        <mxCell id="GvZyWoSlmWfVg5BlU15E-49" style="edgeStyle=orthogonalEdgeStyle;rounded=0;orthogonalLoop=1;jettySize=auto;html=1;entryX=0.5;entryY=0;entryDx=0;entryDy=0;" edge="1" parent="1" source="GvZyWoSlmWfVg5BlU15E-45" target="GvZyWoSlmWfVg5BlU15E-48">
          <mxGeometry relative="1" as="geometry" />
        </mxCell>
        <mxCell id="GvZyWoSlmWfVg5BlU15E-45" value="Model evaluation" style="rounded=0;whiteSpace=wrap;html=1;" vertex="1" parent="1">
          <mxGeometry x="540" y="630" width="150" height="30" as="geometry" />
        </mxCell>
        <mxCell id="GvZyWoSlmWfVg5BlU15E-48" value="End" style="ellipse;whiteSpace=wrap;html=1;" vertex="1" parent="1">
          <mxGeometry x="555" y="690" width="120" height="30" as="geometry" />
        </mxCell>
      </root>
    </mxGraphModel>
  </diagram>
</mxfile>
